<svg width="177" height="75" viewBox="0 0 177 75" fill="none" xmlns="http://www.w3.org/2000/svg">
<path d="M85.6 50.096C85.408 50.9493 84.7467 51.472 83.616 51.664C82.5707 51.856 81.5787 51.7387 80.64 51.312C79.5947 50.864 79.136 50.2347 79.264 49.424C79.136 48.1867 79.7867 45.4987 81.216 41.36C83.3493 35.152 85.4827 30.7147 87.616 28.048C88.1707 27.3653 88.64 26.928 89.024 26.736C89.4293 26.5227 89.888 26.3307 90.4 26.16C90.912 25.9893 91.4453 25.8293 92 25.68C93.1093 25.3813 94.1547 25.1787 95.136 25.072C96.1387 24.944 97.0347 25.0613 97.824 25.424C98.6133 25.7653 99.2213 26.2773 99.648 26.96C100.096 27.6427 100.373 28.4533 100.48 29.392C100.587 30.3093 100.555 31.28 100.384 32.304C100.213 33.3067 99.904 34.3307 99.456 35.376C99.008 36.4 98.4427 37.36 97.76 38.256C96.2667 40.2187 94.5173 41.488 92.512 42.064L92.832 42.608C93.1093 43.0347 93.44 43.504 93.824 44.016C94.2293 44.528 94.624 45.0507 95.008 45.584C95.4133 46.1173 95.776 46.6507 96.096 47.184C96.416 47.7173 96.6507 48.2187 96.8 48.688C97.1413 49.7333 96.8747 50.4907 96 50.96C95.296 51.3867 94.7413 51.4933 94.336 51.28C94.1653 51.1733 93.9947 51.0347 93.824 50.864C93.6533 50.7147 93.4187 50.5867 93.12 50.48C91.8613 50.8427 90.9013 50.5227 90.24 49.52C89.8347 48.88 89.5253 48.2933 89.312 47.76C89.0987 47.2267 88.9173 46.7787 88.768 46.416C88.384 45.6267 87.9467 44.944 87.456 44.368C87.2213 44.944 86.9547 45.68 86.656 46.576C86.2933 47.7067 85.888 48.88 85.44 50.096H85.6ZM92.064 31.472C91.6587 32.3893 91.3813 33.0293 91.232 33.392C90.9333 34.1173 90.6027 34.9173 90.24 35.792C90.176 36.2613 90.1227 36.592 90.08 36.784L90.528 36.336L91.072 36.08C91.456 35.8667 91.808 35.6747 92.128 35.504C92.448 35.3333 92.736 35.12 92.992 34.864C93.4827 34.3733 93.9093 33.5733 94.272 32.464C94.272 32.2507 94.304 32.0373 94.368 31.824C94.4533 31.6107 94.5067 31.3973 94.528 31.184C94.6133 30.7147 94.4213 30.384 93.952 30.192C93.5253 30.1493 92.992 30.5013 92.352 31.248C92.224 31.3973 92.128 31.472 92.064 31.472ZM116.321 28.304C117.046 28.688 117.505 29.2533 117.697 30C117.27 32.3893 116.886 34.768 116.545 37.136C116.204 39.4827 115.873 41.456 115.553 43.056C115.233 44.6347 115.009 45.8187 114.881 46.608C114.774 47.3973 114.646 48.1867 114.497 48.976L114.305 49.648C114.262 49.8827 114.22 50.096 114.177 50.288C114.134 50.5013 114.092 50.7253 114.049 50.96C113.452 51.6427 112.641 51.984 111.617 51.984C110.529 51.984 109.665 51.7067 109.025 51.152C108.641 50.8533 108.577 50.224 108.833 49.264C108.94 48.88 109.004 48.3893 109.025 47.792C109.068 47.1733 109.11 46.6613 109.153 46.256V46.192C108.513 46.4267 107.937 46.736 107.425 47.12C106.913 47.4827 106.593 47.7173 106.465 47.824C106.337 47.9093 106.166 47.984 105.953 48.048C105.74 48.0907 105.548 48.1227 105.377 48.144C104.972 48.1653 104.694 48.2293 104.545 48.336C103.308 50.5547 102.198 51.792 101.217 52.048C100.598 52.24 99.9797 52.2827 99.361 52.176C98.7423 52.0907 98.2517 51.728 97.889 51.088C97.2063 50.448 97.377 48.6987 98.401 45.84C98.9557 44.3253 99.745 42.512 100.769 40.4C101.814 38.2667 102.817 36.4107 103.777 34.832C105.846 31.44 108.118 28.5813 110.593 26.256C110.998 26.0853 111.436 25.8933 111.905 25.68C112.374 25.4453 112.833 25.3173 113.281 25.296C113.75 25.2747 114.23 25.328 114.721 25.456C115.212 25.584 115.628 25.776 115.969 26.032C116.758 26.6293 116.876 27.3867 116.321 28.304ZM109.473 36.72C109.025 38 108.577 39.184 108.129 40.272C107.681 41.3387 107.297 42.2773 106.977 43.088L109.505 42.992C109.676 41.6267 109.868 40.272 110.081 38.928C110.294 37.584 110.497 36.24 110.689 34.896L109.473 36.72ZM108.609 43.12C108.908 43.12 109.206 43.0987 109.505 43.056V43.024C109.228 43.0453 108.972 43.0667 108.737 43.088C108.502 43.1093 108.46 43.12 108.609 43.12ZM118.864 37.584C119.29 36.1547 119.632 35.056 119.888 34.288C120.165 33.4987 120.432 32.7947 120.688 32.176C120.944 31.5573 121.232 30.96 121.552 30.384C121.893 29.808 122.256 29.2853 122.64 28.816C123.045 28.3253 123.472 27.9413 123.92 27.664C124.368 27.3867 124.837 27.248 125.328 27.248C125.818 27.248 126.33 27.44 126.864 27.824C127.717 29.9573 128.24 31.3867 128.432 32.112C128.688 33.1787 128.922 34.6827 129.136 36.624C129.328 36.1333 129.541 35.6213 129.776 35.088C130.032 34.5333 130.277 33.9787 130.512 33.424C131.173 32.016 131.589 30.9493 131.76 30.224C132.229 28.7307 133.2 27.6107 134.672 26.864C135.952 26.224 137.146 26.0213 138.256 26.256C138.704 26.3413 139.013 26.5227 139.184 26.8C139.376 27.0773 139.376 27.3653 139.184 27.664C139.013 27.9627 138.949 28.2507 138.992 28.528C139.056 28.784 139.109 29.0933 139.152 29.456C139.216 30.4373 139.045 31.312 138.64 32.08C138.234 32.8267 137.818 33.7653 137.392 34.896C136.965 36.0053 136.528 37.1893 136.08 38.448C135.653 39.7067 135.216 40.9867 134.767 42.288C134.32 43.5893 133.882 44.7733 133.456 45.84C132.517 48.2933 131.749 49.648 131.152 49.904C130.341 50.3947 129.744 50.6827 129.36 50.768C128.869 50.8533 128.176 50.8533 127.28 50.768C126.725 50.7253 126.245 50.0107 125.84 48.624C125.605 47.8773 125.392 46.8427 125.2 45.52C124.858 43.216 124.624 41.9467 124.496 41.712C123.642 44.4853 123.034 46.2347 122.672 46.96C122.33 47.6853 122.064 48.1653 121.872 48.4C121.701 48.6347 121.488 48.944 121.232 49.328C120.954 50.096 120.293 50.6613 119.248 51.024C118.352 51.3653 117.541 51.4187 116.816 51.184C116.026 50.928 115.791 50.4373 116.111 49.712C116.346 47.152 117.264 43.1093 118.864 37.584ZM142.604 27.28C143.009 26.2987 143.585 25.9467 144.332 26.224C144.545 25.7547 144.726 25.456 144.876 25.328C145.046 25.2 145.217 25.104 145.388 25.04C145.558 24.9547 145.74 24.8693 145.932 24.784C146.124 24.6987 146.422 24.624 146.828 24.56C147.233 24.496 147.681 24.464 148.172 24.464C148.662 24.4427 149.153 24.464 149.644 24.528C150.156 24.592 150.582 24.7307 150.924 24.944C151.756 25.4347 151.937 26.224 151.468 27.312C151.51 27.2907 151.5 27.312 151.436 27.376L151.148 27.92L150.924 28.208C150.817 28.3147 150.486 28.9653 149.932 30.16C149.484 31.0133 149.025 31.856 148.556 32.688C147.788 34.1173 147.318 35.0347 147.148 35.44C147.894 35.0347 148.758 34.448 149.74 33.68C151.596 32.2507 152.78 31.3973 153.292 31.12C153.804 30.8427 154.156 30.672 154.348 30.608C154.561 30.544 154.764 30.5333 154.956 30.576C155.148 30.5973 155.35 30.6507 155.564 30.736L156.364 31.056C156.876 31.2267 157.153 31.8453 157.196 32.912C157.217 33.9573 157.004 34.7467 156.556 35.28C154.614 37.7973 152.428 39.4827 149.996 40.336C149.249 40.6133 148.481 40.848 147.692 41.04C148.822 41.168 149.9 41.9147 150.924 43.28C151.756 44.3893 152.353 45.5307 152.716 46.704C153.1 47.8773 153.398 48.752 153.612 49.328C153.825 49.8827 153.91 50.3093 153.868 50.608C153.846 50.928 153.665 51.1627 153.324 51.312C153.004 51.4827 152.449 51.6427 151.66 51.792C151.297 51.856 150.55 51.4293 149.42 50.512C148.929 50.1067 148.406 49.6693 147.852 49.2C147.297 48.7093 146.742 48.2507 146.188 47.824C144.908 46.8213 144.012 46.2987 143.5 46.256C143.457 46.256 143.372 46.2347 143.244 46.192L142.668 47.632C142.369 48.336 142.06 49.0827 141.74 49.872C141.441 50.64 141.078 51.3333 140.652 51.952C139.99 52.4 139.222 52.5813 138.348 52.496C137.345 52.3893 136.684 51.984 136.364 51.28C136.15 50.6187 136.502 48.6773 137.42 45.456C138.038 43.1947 138.572 41.2107 139.02 39.504C139.468 37.7973 139.852 36.3893 140.172 35.28C140.492 34.1493 140.726 33.2747 140.876 32.656C141.025 32.016 141.174 31.3973 141.324 30.8C141.686 29.4133 142.113 28.24 142.604 27.28ZM160.975 50.096C160.783 50.9493 160.122 51.472 158.991 51.664C157.946 51.856 156.954 51.7387 156.015 51.312C154.97 50.864 154.511 50.2347 154.639 49.424C154.511 48.1867 155.162 45.4987 156.591 41.36C158.724 35.152 160.858 30.7147 162.991 28.048C163.546 27.3653 164.015 26.928 164.399 26.736C164.804 26.5227 165.263 26.3307 165.775 26.16C166.287 25.9893 166.82 25.8293 167.375 25.68C168.484 25.3813 169.53 25.1787 170.511 25.072C171.514 24.944 172.41 25.0613 173.199 25.424C173.988 25.7653 174.596 26.2773 175.023 26.96C175.471 27.6427 175.748 28.4533 175.855 29.392C175.962 30.3093 175.93 31.28 175.759 32.304C175.588 33.3067 175.279 34.3307 174.831 35.376C174.383 36.4 173.818 37.36 173.135 38.256C171.642 40.2187 169.892 41.488 167.887 42.064L168.207 42.608C168.484 43.0347 168.815 43.504 169.199 44.016C169.604 44.528 169.999 45.0507 170.383 45.584C170.788 46.1173 171.151 46.6507 171.471 47.184C171.791 47.7173 172.026 48.2187 172.175 48.688C172.516 49.7333 172.25 50.4907 171.375 50.96C170.671 51.3867 170.116 51.4933 169.711 51.28C169.54 51.1733 169.37 51.0347 169.199 50.864C169.028 50.7147 168.794 50.5867 168.495 50.48C167.236 50.8427 166.276 50.5227 165.615 49.52C165.21 48.88 164.9 48.2933 164.687 47.76C164.474 47.2267 164.292 46.7787 164.143 46.416C163.759 45.6267 163.322 44.944 162.831 44.368C162.596 44.944 162.33 45.68 162.031 46.576C161.668 47.7067 161.263 48.88 160.815 50.096H160.975ZM167.439 31.472C167.034 32.3893 166.756 33.0293 166.607 33.392C166.308 34.1173 165.978 34.9173 165.615 35.792C165.551 36.2613 165.498 36.592 165.455 36.784L165.903 36.336L166.447 36.08C166.831 35.8667 167.183 35.6747 167.503 35.504C167.823 35.3333 168.111 35.12 168.367 34.864C168.858 34.3733 169.284 33.5733 169.647 32.464C169.647 32.2507 169.679 32.0373 169.743 31.824C169.828 31.6107 169.882 31.3973 169.903 31.184C169.988 30.7147 169.796 30.384 169.327 30.192C168.9 30.1493 168.367 30.5013 167.727 31.248C167.599 31.3973 167.503 31.472 167.439 31.472Z" fill="#00C0FA"/>
<path d="M56.8565 53.6636C57.4782 54.5201 57.9716 55.3767 58.315 56.4287C58.3644 56.613 58.4732 56.7759 58.6245 56.8922C58.7757 57.0084 58.9611 57.0717 59.1519 57.0721H66.7821C67.4433 57.0721 68.6413 57.3208 68.969 56.6636C69.1624 56.2353 68.6058 55.7201 68.2407 55.4636C66.9025 54.5004 64.8065 55.4359 63.6538 54.2853C61.8301 52.7201 60.8018 50.6833 60.4584 48.305C60.3301 47.4879 60.265 46.5228 60.6084 45.8576C62.365 42.4491 63.3321 38.8491 63.117 35.032C63.117 34.4103 63.2453 34.282 63.867 34.2169C65.9038 34.1537 66.9972 32.9951 67.0624 30.9366C67.0624 30.3366 67.1255 29.8649 67.8124 29.7149C68.0275 29.7149 68.2841 29.3734 68.219 29.2432C68.1558 28.0215 68.2841 26.6498 67.8775 25.578C67.4038 24.078 66.0538 23.6044 64.5538 23.7346C63.867 23.7346 63.6538 23.5412 63.4604 22.9195C63.117 21.9761 62.6453 21.0109 61.9604 20.4109C59.2367 17.9438 56.0413 17.3458 52.5065 17.8807C52.4413 17.8807 52.3762 18.009 52.2262 18.1609C54.2433 18.5379 54.7584 19.0254 55.6347 19.3826C55.4374 19.4734 55.1611 19.6155 54.8196 19.4458C49.7532 18.6484 45.3558 20.2471 42.3005 25.1063C43.5854 24.828 44.6788 24.6129 45.7742 24.4195C45.7742 24.4846 45.8374 24.5478 45.8374 24.6129C45.7722 24.678 45.7091 24.678 45.6222 24.7629C41.2703 26.7366 40.1986 31.43 43.1788 35.1603C45.6696 38.2728 47.438 44.1761 45.8591 46.4379C45.8591 46.4794 45.8157 46.5011 45.7722 46.5228C45.0361 47.0754 43.8755 46.3807 44.144 45.3445C44.5915 43.7109 44.4475 41.9717 43.7374 40.434C42.2176 37.2583 38.9512 35.4998 38.8703 30.6169C38.8703 30.6366 38.8486 30.6583 38.8269 30.68C36.8287 32.8763 34.2948 34.5166 31.4729 35.4405C28.1512 36.5971 24.7426 36.7905 21.269 35.782C17.0453 34.5484 18.563 28.5386 22.6407 29.1149C24.0558 29.3083 25.4275 29.5886 26.7144 30.1215C33.117 32.4228 38.0038 28.28 36.7268 23.2629C35.9117 20.1958 32.6946 18.3524 29.5012 19.1675C29.231 19.3114 28.929 19.3854 28.6229 19.3826C27.7486 19.3826 26.3769 20.8116 26.9926 21.6326C27.6795 22.1044 29.0946 21.6978 29.3729 20.8826C29.5228 20.6495 29.7292 20.4581 29.9729 20.3261C32.1597 19.7537 34.8183 21.3169 34.6032 24.3563C34.54 26.328 32.8466 28.0866 30.8097 28.0866C29.2446 28.1971 26.3946 27.0563 23.8426 26.4563C20.7538 25.7063 17.3453 26.9695 15.9301 29.8234C14.365 32.9951 15.4801 36.6623 18.4821 38.5057C19.017 38.7623 19.6387 39.0405 20.3255 39.384C18.8887 40.134 18.0755 41.4208 17.2604 42.7076C15.9736 44.6142 14.065 45.5794 11.7499 45.4313C10.9999 45.3662 10.5913 45.6445 10.1196 46.1162C9.17225 47.0636 7.86369 49.4241 7.33277 50.6833C6.6342 52.3324 6.17239 54.072 5.96106 55.8504C5.86238 56.6438 5.61172 57.1353 6.47422 57.1353C14.4538 57.1155 14.5387 57.1155 14.8801 57.2221C15.1801 57.307 15.4367 57.3504 15.6953 57.157C16.5953 56.4701 15.4387 55.5919 14.8367 55.2701C13.8183 54.7629 12.7111 55.055 10.8696 54.9701C11.063 53.255 11.6196 51.8399 12.4347 50.5333C12.565 50.405 13.0367 50.5333 13.315 50.6833C15.492 51.7708 18.49 52.2741 21.4821 51.5616C21.569 51.5419 21.6538 51.5419 21.7387 51.4965C21.4407 49.2465 22.1038 46.8248 23.6058 45.1096C23.6966 45.0031 23.8076 44.9158 23.9325 44.8526C24.0573 44.7894 24.1935 44.7516 24.3331 44.7415C24.4727 44.7314 24.6128 44.7492 24.7455 44.7937C24.8781 44.8383 25.0006 44.9088 25.1058 45.0011C25.5558 45.3879 25.5992 46.0728 25.2124 46.5228C24.5414 47.3132 24.091 48.2667 23.9066 49.2869C23.7222 50.3072 23.8105 51.3581 24.1624 52.3333C24.2295 52.5307 26.3216 57.2517 26.8426 57.1353C32.4676 57.1353 32.6492 56.9498 33.5097 57.0919C34.0032 57.157 34.3466 57.2221 34.6683 56.7287C34.9051 56.3438 34.6032 56.0636 34.3249 55.7853C33.1624 54.6563 30.9499 55.3215 30.1012 54.3701C29.8643 54.0919 29.7795 53.7484 29.6295 53.4267C29.6097 53.3616 29.3926 52.7833 29.3078 52.7833C30.8078 52.6767 32.138 52.2701 33.2532 51.4333C33.2745 51.295 33.3257 51.163 33.4032 51.0465C34.39 49.5465 35.0315 47.8294 35.2466 46.053C35.278 45.7688 35.421 45.5087 35.6442 45.3299C35.8674 45.1511 36.1525 45.0683 36.4367 45.0998C36.721 45.1312 36.9811 45.2742 37.1598 45.4974C37.3386 45.7206 37.4214 46.0056 37.39 46.2899C37.2795 47.2088 37.0711 48.1133 36.7683 48.9879C37.2913 49.1201 37.9091 49.2642 38.3551 49.1813C38.7617 49.1813 39.042 49.1182 39.3617 49.4616C39.7703 49.8682 39.5137 50.2116 39.2986 50.6833C39.2334 50.8333 39.0203 51.3899 38.6334 52.5267C38.2703 53.555 38.5703 53.5767 38.2703 54.6701C37.8005 56.2945 36.642 57.0721 39.192 57.0721H47.1874C47.5959 57.0721 48.1742 57.1787 48.5611 56.9419C49.1394 56.5787 48.5176 56.0201 48.2176 55.7201C47.4005 54.7669 45.5946 54.9701 44.3374 54.9701C45.0874 53.1899 46.244 52.0333 47.8111 51.3682C52.3446 49.4616 51.6696 44.6458 51.9696 44.6142C52.2065 44.5945 52.8696 46.4379 52.7196 48.453C52.6328 49.9116 52.1196 51.1333 51.5611 52.0767C51.2176 52.655 51.7545 53.3833 52.3979 53.2136C54.6479 52.6116 56.4716 51.2833 58.0782 49.4616C57.6716 50.1248 57.265 50.8767 56.7933 51.4965C55.9782 52.5899 55.9782 52.5899 56.8565 53.6636ZM66.3104 26.9932C66.3755 26.7998 66.5275 26.5846 66.6538 26.5846C66.7821 26.5846 67.0624 26.7998 67.1275 26.928C67.2124 27.3366 67.2755 27.7432 67.1275 28.0215C67.0624 28.3017 66.9972 28.6432 66.869 28.6432H66.7821C66.5907 28.3649 66.4624 28.3017 66.3104 28.0866C66.2472 27.9583 66.3104 27.9583 66.3104 27.4866C66.3104 27.3366 66.2472 27.1432 66.3104 26.9932ZM66.3104 30.7432C66.3755 31.43 65.969 32.03 65.3038 32.0951C64.4196 32.1761 63.6045 32.1149 63.1821 32.1149C62.6729 32.1149 62.4104 31.8445 63.2887 31.2583C64.0249 30.7254 64.8203 30.4629 65.6472 30.2083C65.8407 30.1234 66.3104 30.53 66.3104 30.7451V30.7432ZM54.8196 27.6149C54.6696 27.6563 54.4782 27.7866 54.3065 27.6998C54.2196 27.6563 54.1347 27.5715 54.1347 27.4629C54.0913 27.2261 54.2986 27.1076 55.163 26.2432C55.3012 26.0892 56.1144 25.2484 56.1499 25.2129C56.7341 24.6287 54.6065 24.0563 53.6828 24.0563C53.4854 23.9912 53.2347 24.009 53.3413 23.6912C53.4045 23.5195 53.6196 23.3912 53.7696 23.3044C54.119 23.0873 54.4801 22.8623 55.4196 22.6412C57.6065 22.2326 59.7933 22.3846 61.8933 22.9195C62.0887 22.9846 62.367 23.3261 62.367 23.5412C62.4301 24.1412 62.7104 24.2715 63.2453 24.3563C63.7999 24.4254 64.7216 24.6919 65.2604 24.8695C65.515 24.9544 65.7834 24.9958 65.5821 25.2998C65.4242 25.4576 64.4986 25.882 64.2953 25.9629C63.6894 26.2649 63.0203 25.8287 62.8387 26.0715C62.7519 26.1563 62.8387 26.2866 62.9018 26.3715C63.0992 26.5688 63.1505 26.7228 63.8236 26.9063C63.9104 26.9063 63.9953 26.928 64.0801 26.928C64.4038 26.928 64.8972 26.9932 65.1538 27.2063C65.7104 27.7432 65.4321 28.7063 64.6821 29.0517C64.4847 29.1405 61.9505 30.2873 61.5084 30.5083C61.3367 30.5951 61.167 30.8083 60.9736 30.7451C60.8236 30.7017 60.7584 30.5951 60.8236 30.4649C61.3051 29.3458 60.3558 29.1484 60.2019 28.0215C60.115 27.3998 60.3953 26.9932 60.3953 26.6498C60.3953 26.2195 59.965 26.0498 59.515 26.0498C57.9499 26.5215 56.3847 27.078 54.8196 27.6149Z" fill="#00C0FA"/>
<path d="M60.9518 24.2715C60.9518 24.2063 60.867 24.1412 60.867 24.0129C60.6262 23.9162 60.2157 23.6892 59.7933 23.6063C58.5913 23.2886 58.1236 23.3261 56.8565 23.3261C57.0282 23.4544 57.1782 23.6063 57.3301 23.7346C58.7808 25.1359 58.8321 24.6109 60.9518 24.2715Z" fill="#00C0FA"/>
<g clip-path="url(#clip0_7_2)">
<path d="M53.6945 14.8389L49.2655 10.8317L47.3783 16.4984L43.6344 15.2241L47.3676 21.6449L56.234 19.3153L56.3285 11.8888L53.6945 14.8389ZM51.3413 18.732L49.707 17.3633L50.4583 15.3712L52.0916 16.7363L51.3413 18.732Z" fill="#00C0FA"/>
</g>
<defs>
<clipPath id="clip0_7_2">
<rect width="15" height="15" fill="white" transform="translate(41.4 10.2618) rotate(-14.7214)"/>
</clipPath>
</defs>
</svg>
