<svg xmlns="http://www.w3.org/2000/svg" version="1.1" xmlns:xlink="http://www.w3.org/1999/xlink" width="512" height="512" x="0" y="0" viewBox="0 0 32 32" style="enable-background:new 0 0 512 512" xml:space="preserve" class=""><g><path fill="#00c0fa" d="M16 1C7.72 1 1 7.72 1 16s6.72 15 15 15 15-6.72 15-15S24.28 1 16 1zm7.5 12.32-7 8c-.39.45-.94.68-1.5.68-.44 0-.88-.14-1.25-.44l-5-4a2.001 2.001 0 0 1-.079-3.055c.742-.666 1.889-.617 2.667.005l3.044 2.436a.493.493 0 0 0 .678-.06l5.44-6.206c.72-.83 1.99-.91 2.82-.18.83.72.91 1.99.18 2.82z" opacity="1" data-original="#2c96ff" class=""></path></g></svg>